<mxfile host="app.diagrams.net" agent="Mozilla/5.0 (Windows NT 10.0; Win64; x64; rv:136.0) Gecko/20100101 Firefox/136.0" version="26.1.1">
  <diagram name="Page-1" id="XW25_Qr0gox8qkIDQo_x">
    <mxGraphModel dx="1434" dy="782" grid="1" gridSize="10" guides="1" tooltips="1" connect="1" arrows="1" fold="1" page="1" pageScale="1" pageWidth="850" pageHeight="1100" math="0" shadow="0">
      <root>
        <mxCell id="0" />
        <mxCell id="1" parent="0" />
        <mxCell id="KNZ8NhDfGAsJustiehOf-16" style="edgeStyle=orthogonalEdgeStyle;rounded=0;orthogonalLoop=1;jettySize=auto;html=1;entryX=0.5;entryY=0;entryDx=0;entryDy=0;endArrow=none;startFill=0;dashed=1;" edge="1" parent="1" source="KNZ8NhDfGAsJustiehOf-1" target="KNZ8NhDfGAsJustiehOf-3">
          <mxGeometry relative="1" as="geometry" />
        </mxCell>
        <mxCell id="KNZ8NhDfGAsJustiehOf-1" value="External Service" style="rounded=0;whiteSpace=wrap;html=1;" vertex="1" parent="1">
          <mxGeometry x="280" y="220" width="120" height="60" as="geometry" />
        </mxCell>
        <mxCell id="KNZ8NhDfGAsJustiehOf-17" style="edgeStyle=orthogonalEdgeStyle;rounded=0;orthogonalLoop=1;jettySize=auto;html=1;entryX=0.5;entryY=0;entryDx=0;entryDy=0;endArrow=none;startFill=0;dashed=1;" edge="1" parent="1" source="KNZ8NhDfGAsJustiehOf-2" target="KNZ8NhDfGAsJustiehOf-4">
          <mxGeometry relative="1" as="geometry" />
        </mxCell>
        <mxCell id="KNZ8NhDfGAsJustiehOf-2" value="External Service" style="rounded=0;whiteSpace=wrap;html=1;" vertex="1" parent="1">
          <mxGeometry x="520" y="220" width="120" height="60" as="geometry" />
        </mxCell>
        <mxCell id="KNZ8NhDfGAsJustiehOf-18" style="edgeStyle=orthogonalEdgeStyle;rounded=0;orthogonalLoop=1;jettySize=auto;html=1;entryX=0;entryY=0.5;entryDx=0;entryDy=0;endArrow=none;startFill=0;dashed=1;" edge="1" parent="1" source="KNZ8NhDfGAsJustiehOf-3" target="KNZ8NhDfGAsJustiehOf-4">
          <mxGeometry relative="1" as="geometry" />
        </mxCell>
        <mxCell id="KNZ8NhDfGAsJustiehOf-20" style="edgeStyle=orthogonalEdgeStyle;rounded=0;orthogonalLoop=1;jettySize=auto;html=1;entryX=0.5;entryY=0;entryDx=0;entryDy=0;endArrow=none;startFill=0;dashed=1;" edge="1" parent="1" source="KNZ8NhDfGAsJustiehOf-3" target="KNZ8NhDfGAsJustiehOf-5">
          <mxGeometry relative="1" as="geometry" />
        </mxCell>
        <mxCell id="KNZ8NhDfGAsJustiehOf-3" value="API Application Central Server" style="rounded=0;whiteSpace=wrap;html=1;fillColor=#d5e8d4;strokeColor=#82b366;" vertex="1" parent="1">
          <mxGeometry x="280" y="360" width="120" height="60" as="geometry" />
        </mxCell>
        <mxCell id="KNZ8NhDfGAsJustiehOf-4" value="API Application Database Server" style="rounded=0;whiteSpace=wrap;html=1;fillColor=#d5e8d4;strokeColor=#82b366;" vertex="1" parent="1">
          <mxGeometry x="520" y="360" width="120" height="60" as="geometry" />
        </mxCell>
        <mxCell id="KNZ8NhDfGAsJustiehOf-5" value="API Application &lt;br&gt;LLM Server" style="rounded=0;whiteSpace=wrap;html=1;fillColor=#d5e8d4;strokeColor=#82b366;" vertex="1" parent="1">
          <mxGeometry x="280" y="500" width="120" height="60" as="geometry" />
        </mxCell>
        <mxCell id="KNZ8NhDfGAsJustiehOf-6" value="Database" style="shape=cylinder3;whiteSpace=wrap;html=1;boundedLbl=1;backgroundOutline=1;size=15;" vertex="1" parent="1">
          <mxGeometry x="550" y="490" width="60" height="80" as="geometry" />
        </mxCell>
        <mxCell id="KNZ8NhDfGAsJustiehOf-15" style="edgeStyle=orthogonalEdgeStyle;rounded=0;orthogonalLoop=1;jettySize=auto;html=1;entryX=0.5;entryY=0;entryDx=0;entryDy=0;" edge="1" parent="1" source="KNZ8NhDfGAsJustiehOf-7" target="KNZ8NhDfGAsJustiehOf-1">
          <mxGeometry relative="1" as="geometry" />
        </mxCell>
        <mxCell id="KNZ8NhDfGAsJustiehOf-7" value="&lt;div&gt;User&lt;/div&gt;" style="shape=umlActor;verticalLabelPosition=bottom;verticalAlign=top;html=1;outlineConnect=0;" vertex="1" parent="1">
          <mxGeometry x="180" y="90" width="30" height="60" as="geometry" />
        </mxCell>
        <mxCell id="KNZ8NhDfGAsJustiehOf-13" style="edgeStyle=orthogonalEdgeStyle;rounded=0;orthogonalLoop=1;jettySize=auto;html=1;" edge="1" parent="1" source="KNZ8NhDfGAsJustiehOf-8" target="KNZ8NhDfGAsJustiehOf-2">
          <mxGeometry relative="1" as="geometry" />
        </mxCell>
        <mxCell id="KNZ8NhDfGAsJustiehOf-8" value="Database Administrator" style="shape=umlActor;verticalLabelPosition=bottom;verticalAlign=top;html=1;outlineConnect=0;" vertex="1" parent="1">
          <mxGeometry x="440" y="90" width="30" height="60" as="geometry" />
        </mxCell>
        <mxCell id="KNZ8NhDfGAsJustiehOf-19" style="edgeStyle=orthogonalEdgeStyle;rounded=0;orthogonalLoop=1;jettySize=auto;html=1;entryX=0.5;entryY=0;entryDx=0;entryDy=0;entryPerimeter=0;dashed=1;endArrow=none;startFill=0;" edge="1" parent="1" source="KNZ8NhDfGAsJustiehOf-4" target="KNZ8NhDfGAsJustiehOf-6">
          <mxGeometry relative="1" as="geometry" />
        </mxCell>
        <mxCell id="KNZ8NhDfGAsJustiehOf-21" value="OMP Chat-Assistant: Container View" style="text;html=1;align=center;verticalAlign=middle;whiteSpace=wrap;rounded=0;fontSize=17;fontStyle=1" vertex="1" parent="1">
          <mxGeometry width="850" height="30" as="geometry" />
        </mxCell>
        <mxCell id="KNZ8NhDfGAsJustiehOf-22" value="Legend" style="swimlane;whiteSpace=wrap;html=1;" vertex="1" parent="1">
          <mxGeometry x="20" y="590" width="810" height="500" as="geometry" />
        </mxCell>
        <mxCell id="KNZ8NhDfGAsJustiehOf-23" value="Container" style="rounded=0;whiteSpace=wrap;html=1;" vertex="1" parent="KNZ8NhDfGAsJustiehOf-22">
          <mxGeometry x="30" y="50" width="120" height="60" as="geometry" />
        </mxCell>
        <mxCell id="KNZ8NhDfGAsJustiehOf-24" value="Any container per C4 definition of a container. This container is not developed by the development team" style="text;html=1;align=left;verticalAlign=top;whiteSpace=wrap;rounded=0;" vertex="1" parent="KNZ8NhDfGAsJustiehOf-22">
          <mxGeometry x="170" y="50" width="620" height="60" as="geometry" />
        </mxCell>
        <mxCell id="KNZ8NhDfGAsJustiehOf-25" value="Container" style="rounded=0;whiteSpace=wrap;html=1;fillColor=#d5e8d4;strokeColor=#82b366;" vertex="1" parent="KNZ8NhDfGAsJustiehOf-22">
          <mxGeometry x="30" y="120" width="120" height="60" as="geometry" />
        </mxCell>
        <mxCell id="KNZ8NhDfGAsJustiehOf-26" value="Any container per C4 definition of a container. This container is developed by the development team" style="text;html=1;align=left;verticalAlign=top;whiteSpace=wrap;rounded=0;" vertex="1" parent="KNZ8NhDfGAsJustiehOf-22">
          <mxGeometry x="170" y="120" width="620" height="60" as="geometry" />
        </mxCell>
        <mxCell id="KNZ8NhDfGAsJustiehOf-28" value="A database container. This represents a database, such as VectorDB." style="text;html=1;align=left;verticalAlign=top;whiteSpace=wrap;rounded=0;" vertex="1" parent="KNZ8NhDfGAsJustiehOf-22">
          <mxGeometry x="170" y="200" width="620" height="60" as="geometry" />
        </mxCell>
        <mxCell id="KNZ8NhDfGAsJustiehOf-29" value="Database" style="shape=cylinder3;whiteSpace=wrap;html=1;boundedLbl=1;backgroundOutline=1;size=15;" vertex="1" parent="KNZ8NhDfGAsJustiehOf-22">
          <mxGeometry x="60" y="190" width="60" height="80" as="geometry" />
        </mxCell>
        <mxCell id="KNZ8NhDfGAsJustiehOf-31" value="Interaction. Source of the connection interacts with the end" style="text;html=1;align=left;verticalAlign=top;whiteSpace=wrap;rounded=0;" vertex="1" parent="KNZ8NhDfGAsJustiehOf-22">
          <mxGeometry x="170" y="290" width="620" height="60" as="geometry" />
        </mxCell>
        <mxCell id="KNZ8NhDfGAsJustiehOf-32" value="" style="endArrow=classic;html=1;rounded=0;" edge="1" parent="KNZ8NhDfGAsJustiehOf-22">
          <mxGeometry width="50" height="50" relative="1" as="geometry">
            <mxPoint x="60" y="340" as="sourcePoint" />
            <mxPoint x="110" y="290" as="targetPoint" />
          </mxGeometry>
        </mxCell>
        <mxCell id="KNZ8NhDfGAsJustiehOf-33" value="" style="endArrow=none;dashed=1;html=1;dashPattern=1 3;strokeWidth=2;rounded=0;" edge="1" parent="KNZ8NhDfGAsJustiehOf-22">
          <mxGeometry width="50" height="50" relative="1" as="geometry">
            <mxPoint x="60" y="410" as="sourcePoint" />
            <mxPoint x="110" y="360" as="targetPoint" />
          </mxGeometry>
        </mxCell>
        <mxCell id="KNZ8NhDfGAsJustiehOf-34" value="Communication. Connected containers interact with each other by exchanging queries or API calls" style="text;html=1;align=left;verticalAlign=top;whiteSpace=wrap;rounded=0;" vertex="1" parent="KNZ8NhDfGAsJustiehOf-22">
          <mxGeometry x="170" y="360" width="620" height="60" as="geometry" />
        </mxCell>
        <mxCell id="KNZ8NhDfGAsJustiehOf-35" value="Actor" style="shape=umlActor;verticalLabelPosition=bottom;verticalAlign=top;html=1;outlineConnect=0;" vertex="1" parent="KNZ8NhDfGAsJustiehOf-22">
          <mxGeometry x="75" y="420" width="25" height="50" as="geometry" />
        </mxCell>
        <mxCell id="KNZ8NhDfGAsJustiehOf-36" value="Any human being" style="text;html=1;align=left;verticalAlign=top;whiteSpace=wrap;rounded=0;" vertex="1" parent="KNZ8NhDfGAsJustiehOf-22">
          <mxGeometry x="170" y="430" width="620" height="60" as="geometry" />
        </mxCell>
      </root>
    </mxGraphModel>
  </diagram>
</mxfile>
